# xmcd CD database file
# Copyright (C) 1996 Ti Kan
#
# Track frame offsets:
# 	150
# 	18433
# 	38007
# 	58673
# 	79147
# 	111489
# 	140450
# 	159428
# 	178614
# 	204569
# 	224685
# 	250909
#
# Disc length: 3775 seconds
#
# Revision: 1
# Processed by: cddbd v1.4b41PL1 Copyright (c) Steve Scherf et al.
# Submitted via: DiscPlay 3.4.1
#
DISCID=ab0ebd0c
DTITLE=Jim Suhler And Monkey Beat - Shake
DYEAR=1900
DGENRE=
TTITLE0=Snake Bit
TTITLE1=Shake
TTITLE2=Bad News
TTITLE3=Snake Hips
TTITLE4=Voodoo Light
TTITLE5=Black Magic Spell
TTITLE6=Graveyard Train
TTITLE7=Little Boy Blue
TTITLE8=Bones In The Closet
TTITLE9=Double Talkin' Woman
TTITLE10=Every Dog Has His Day
TTITLE11=Dark Was The Night, Cold Was The Ground
EXTD=
EXTT0=
EXTT1=
EXTT2=
EXTT3=
EXTT4=
EXTT5=
EXTT6=
EXTT7=
EXTT8=
EXTT9=
EXTT10=
EXTT11=
PLAYORDER=
